{
  "accessors": [
    {
      "bufferView": 2,
      "componentType": 5126,
      "count": 828,
      "max": [
        4.05903959274292,
        4.05903959274292,
        27.95087242126465
      ],
      "min": [
        -4.05903959274292,
        -4.05903959274292,
        -1.195441061272633e-14
      ],
      "type": "VEC3"
    },
    {
      "bufferView": 2,
      "byteOffset": 9936,
      "componentType": 5126,
      "count": 828,
      "max": [
        0.9833200573921204,
        0.9833201169967651,
        1.0
      ],
      "min": [
        -0.9833200573921204,
        -0.9833201169967651,
        -1.0
      ],
      "type": "VEC3"
    },
    {
      "bufferView": 3,
      "componentType": 5126,
      "count": 828,
      "max": [
        1.0,
        0.9888171553611755,
        1.0,
        1.0
      ],
      "min": [
        -1.0,
        -0.9997459650039673,
        -1.0,
        1.0
      ],
      "type": "VEC4"
    },
    {
      "bufferView": 1,
      "componentType": 5126,
      "count": 828,
      "max": [
        0.9996715784072876,
        0.9680660367012024
      ],
      "min": [
        0.00032838969491422176,
        0.00032838969491422176
      ],
      "type": "VEC2"
    },
    {
      "bufferView": 0,
      "componentType": 5125,
      "count": 2838,
      "type": "SCALAR"
    },
    {
      "bufferView": 2,
      "byteOffset": 19872,
      "componentType": 5126,
      "count": 573,
      "max": [
        4.05903959274292,
        -8.577749252319336,
        27.95087242126465
      ],
      "min": [
        -4.05903959274292,
        -16.69582748413086,
        0.0
      ],
      "type": "VEC3"
    },
    {
      "bufferView": 2,
      "byteOffset": 26748,
      "componentType": 5126,
      "count": 573,
      "max": [
        0.9833201169967651,
        0.983319878578186,
        1.0
      ],
      "min": [
        -0.9833201169967651,
        -0.9833200573921204,
        -1.0
      ],
      "type": "VEC3"
    },
    {
      "bufferView": 3,
      "byteOffset": 13248,
      "componentType": 5126,
      "count": 573,
      "max": [
        1.0,
        0.9812634587287903,
        1.0,
        1.0
      ],
      "min": [
        -0.9877000451087952,
        -0.9812634587287903,
        -1.0,
        1.0
      ],
      "type": "VEC4"
    },
    {
      "bufferView": 1,
      "byteOffset": 6624,
      "componentType": 5126,
      "count": 573,
      "max": [
        0.9950695633888245,
        0.999500036239624
      ],
      "min": [
        0.0007492804434150457,
        0.0034871622920036316
      ],
      "type": "VEC2"
    },
    {
      "bufferView": 0,
      "byteOffset": 11352,
      "componentType": 5125,
      "count": 1668,
      "type": "SCALAR"
    },
    {
      "bufferView": 2,
      "byteOffset": 33624,
      "componentType": 5126,
      "count": 282,
      "max": [
        3.752767562866211,
        -21.88620948791504,
        28.45078468322754
      ],
      "min": [
        -3.752767562866211,
        -29.391746520996094,
        -0.00013791982200928032
      ],
      "type": "VEC3"
    },
    {
      "bufferView": 2,
      "byteOffset": 37008,
      "componentType": 5126,
      "count": 282,
      "max": [
        1.0,
        1.0,
        1.0
      ],
      "min": [
        -1.0,
        -1.0,
        -1.0
      ],
      "type": "VEC3"
    },
    {
      "bufferView": 3,
      "byteOffset": 22416,
      "componentType": 5126,
      "count": 282,
      "max": [
        0.9929258823394775,
        1.0,
        1.0,
        1.0
      ],
      "min": [
        -1.0,
        -1.0,
        -0.8393934965133667,
        -1.0
      ],
      "type": "VEC4"
    },
    {
      "bufferView": 1,
      "byteOffset": 11208,
      "componentType": 5126,
      "count": 282,
      "max": [
        0.999500036239624,
        0.9904106855392456
      ],
      "min": [
        0.0005000000237487257,
        0.0005000000237487257
      ],
      "type": "VEC2"
    },
    {
      "bufferView": 0,
      "byteOffset": 18024,
      "componentType": 5125,
      "count": 1080,
      "type": "SCALAR"
    }
  ],
  "asset": {
    "extras": {
      "author": "Helyeouka (https://sketchfab.com/Helyeouka)",
      "license": "CC-BY-4.0 (http://creativecommons.org/licenses/by/4.0/)",
      "source": "https://sketchfab.com/3d-models/whiskey-and-wine-low-poly-bottles-99999f032f624e8cb05651f041dbf8eb",
      "title": "Whiskey and Wine Low-Poly Bottles"
    },
    "generator": "Sketchfab-15.7.0",
    "version": "2.0"
  },
  "bufferViews": [
    {
      "buffer": 0,
      "byteLength": 22344,
      "name": "floatBufferViews",
      "target": 34963
    },
    {
      "buffer": 0,
      "byteLength": 13464,
      "byteOffset": 22344,
      "byteStride": 8,
      "name": "floatBufferViews",
      "target": 34962
    },
    {
      "buffer": 0,
      "byteLength": 40392,
      "byteOffset": 35808,
      "byteStride": 12,
      "name": "floatBufferViews",
      "target": 34962
    },
    {
      "buffer": 0,
      "byteLength": 26928,
      "byteOffset": 76200,
      "byteStride": 16,
      "name": "floatBufferViews",
      "target": 34962
    }
  ],
  "buffers": [
    {
      "byteLength": 103128,
      "uri": "scene.bin"
    }
  ],
  "images": [
    {
      "uri": "textures/Material.003_baseColor.png"
    },
    {
      "uri": "textures/Material.003_metallicRoughness.png"
    },
    {
      "uri": "textures/Material.003_normal.png"
    },
    {
      "uri": "textures/Material.002_baseColor.png"
    },
    {
      "uri": "textures/Material.002_metallicRoughness.png"
    },
    {
      "uri": "textures/Material.002_normal.png"
    },
    {
      "uri": "textures/Material.001_baseColor.png"
    },
    {
      "uri": "textures/Material.001_metallicRoughness.png"
    },
    {
      "uri": "textures/Material.001_normal.png"
    }
  ],
  "materials": [
    {
      "alphaMode": "BLEND",
      "doubleSided": true,
      "name": "Material.003",
      "normalTexture": {
        "index": 2
      },
      "pbrMetallicRoughness": {
        "baseColorTexture": {
          "index": 0
        },
        "metallicRoughnessTexture": {
          "index": 1
        }
      }
    },
    {
      "doubleSided": true,
      "name": "Material.002",
      "normalTexture": {
        "index": 5
      },
      "pbrMetallicRoughness": {
        "baseColorTexture": {
          "index": 3
        },
        "metallicRoughnessTexture": {
          "index": 4
        }
      }
    },
    {
      "doubleSided": true,
      "name": "Material.001",
      "normalTexture": {
        "index": 8
      },
      "pbrMetallicRoughness": {
        "baseColorTexture": {
          "index": 6
        },
        "metallicRoughnessTexture": {
          "index": 7
        }
      }
    }
  ],
  "meshes": [
    {
      "name": "Whiskey_Material.003_0",
      "primitives": [
        {
          "attributes": {
            "NORMAL": 1,
            "POSITION": 0,
            "TANGENT": 2,
            "TEXCOORD_0": 3
          },
          "indices": 4,
          "material": 0,
          "mode": 4
        }
      ]
    },
    {
      "name": "Whiskey_Material.002_0",
      "primitives": [
        {
          "attributes": {
            "NORMAL": 6,
            "POSITION": 5,
            "TANGENT": 7,
            "TEXCOORD_0": 8
          },
          "indices": 9,
          "material": 1,
          "mode": 4
        }
      ]
    },
    {
      "name": "Whiskey_Material.001_0",
      "primitives": [
        {
          "attributes": {
            "NORMAL": 11,
            "POSITION": 10,
            "TANGENT": 12,
            "TEXCOORD_0": 13
          },
          "indices": 14,
          "material": 2,
          "mode": 4
        }
      ]
    }
  ],
  "nodes": [
    {
      "children": [
        1
      ],
      "matrix": [
        0.7724525928497314,
        -1.4101441563581034e-16,
        0.6350724697113037,
        0.0,
        0.6350724697113037,
        1.7151893080263468e-16,
        -0.7724525928497314,
        0.0,
        0.0,
        1.0,
        2.220446049250313e-16,
        0.0,
        0.0,
        0.0,
        0.0,
        1.0
      ],
      "name": "Sketchfab_model"
    },
    {
      "children": [
        2
      ],
      "matrix": [
        0.009999999776482582,
        0.0,
        0.0,
        0.0,
        0.0,
        0.0,
        0.009999999776482582,
        0.0,
        0.0,
        -0.009999999776482582,
        0.0,
        0.0,
        0.0,
        0.0,
        0.0,
        1.0
      ],
      "name": "98b52da63fcc447a86c7ebb2983f88bc.fbx"
    },
    {
      "children": [
        3
      ],
      "name": "RootNode"
    },
    {
      "children": [
        4,
        5,
        6
      ],
      "matrix": [
        2.5399999618530273,
        0.0,
        0.0,
        0.0,
        0.0,
        -4.138185194403211e-07,
        -2.5399999618529936,
        0.0,
        0.0,
        2.5399999618529936,
        -4.138185194403211e-07,
        0.0,
        0.0,
        0.0,
        -32.09743881225586,
        1.0
      ],
      "name": "Whiskey"
    },
    {
      "mesh": 0,
      "name": "Whiskey_Material.003_0"
    },
    {
      "mesh": 1,
      "name": "Whiskey_Material.002_0"
    },
    {
      "mesh": 2,
      "name": "Whiskey_Material.001_0"
    }
  ],
  "samplers": [
    {
      "magFilter": 9729,
      "minFilter": 9987,
      "wrapS": 10497,
      "wrapT": 10497
    }
  ],
  "scene": 0,
  "scenes": [
    {
      "name": "Sketchfab_Scene",
      "nodes": [
        0
      ]
    }
  ],
  "textures": [
    {
      "sampler": 0,
      "source": 0
    },
    {
      "sampler": 0,
      "source": 1
    },
    {
      "sampler": 0,
      "source": 2
    },
    {
      "sampler": 0,
      "source": 3
    },
    {
      "sampler": 0,
      "source": 4
    },
    {
      "sampler": 0,
      "source": 5
    },
    {
      "sampler": 0,
      "source": 6
    },
    {
      "sampler": 0,
      "source": 7
    },
    {
      "sampler": 0,
      "source": 8
    }
  ]
}
