{
  "accessors": [
    {
      "bufferView": 2,
      "componentType": 5126,
      "count": 3505,
      "max": [
        312.4559631347656,
        114.00235748291016,
        -576.9911499023438
      ],
      "min": [
        258.65191650390625,
        12.499446868896484,
        -669.125244140625
      ],
      "type": "VEC3"
    },
    {
      "bufferView": 2,
      "byteOffset": 42060,
      "componentType": 5126,
      "count": 3505,
      "max": [
        1.0,
        1.0,
        1.0
      ],
      "min": [
        -1.0,
        -1.0,
        -1.0
      ],
      "type": "VEC3"
    },
    {
      "bufferView": 3,
      "componentType": 5126,
      "count": 3505,
      "max": [
        1.0,
        0.9999960064888,
        1.0,
        1.0
      ],
      "min": [
        -1.0,
        -0.9999999403953552,
        -0.9999997019767761,
        -1.0
      ],
      "type": "VEC4"
    },
    {
      "bufferView": 1,
      "componentType": 5126,
      "count": 3505,
      "max": [
        0.9996238946914673,
        0.9586865305900574
      ],
      "min": [
        0.000376090407371521,
        0.00037607550621032715
      ],
      "type": "VEC2"
    },
    {
      "bufferView": 0,
      "componentType": 5125,
      "count": 15120,
      "type": "SCALAR"
    },
    {
      "bufferView": 2,
      "byteOffset": 84120,
      "componentType": 5126,
      "count": 1018,
      "max": [
        311.7619323730469,
        67.33712005615234,
        -581.224365234375
      ],
      "min": [
        259.3359069824219,
        65.12155151367188,
        -656.4513549804688
      ],
      "type": "VEC3"
    },
    {
      "bufferView": 2,
      "byteOffset": 96336,
      "componentType": 5126,
      "count": 1018,
      "max": [
        0.9985678791999817,
        0.9992498159408569,
        0.9984408020973206
      ],
      "min": [
        -0.9985673427581787,
        -1.0,
        -0.9986115097999573
      ],
      "type": "VEC3"
    },
    {
      "bufferView": 3,
      "byteOffset": 56080,
      "componentType": 5126,
      "count": 1018,
      "max": [
        1.0,
        0.9986130595207214,
        0.8993441462516785,
        1.0
      ],
      "min": [
        -1.0,
        -0.5560781955718994,
        -0.8697569966316223,
        1.0
      ],
      "type": "VEC4"
    },
    {
      "bufferView": 1,
      "byteOffset": 28040,
      "componentType": 5126,
      "count": 1018,
      "max": [
        0.9614859819412231,
        0.9770689010620117
      ],
      "min": [
        0.4960082173347473,
        0.2791319787502289
      ],
      "type": "VEC2"
    },
    {
      "bufferView": 0,
      "byteOffset": 60480,
      "componentType": 5125,
      "count": 5016,
      "type": "SCALAR"
    }
  ],
  "asset": {
    "extras": {
      "author": "lucianofgatto (https://sketchfab.com/lucianofgatto)",
      "license": "CC-BY-4.0 (http://creativecommons.org/licenses/by/4.0/)",
      "source": "https://sketchfab.com/3d-models/dirty-public-toilet-7082a1c21601433d968ea83d33a40c00",
      "title": "Dirty Public Toilet"
    },
    "generator": "Sketchfab-15.50.0",
    "version": "2.0"
  },
  "bufferViews": [
    {
      "buffer": 0,
      "byteLength": 80544,
      "name": "floatBufferViews",
      "target": 34963
    },
    {
      "buffer": 0,
      "byteLength": 36184,
      "byteOffset": 80544,
      "byteStride": 8,
      "name": "floatBufferViews",
      "target": 34962
    },
    {
      "buffer": 0,
      "byteLength": 108552,
      "byteOffset": 116728,
      "byteStride": 12,
      "name": "floatBufferViews",
      "target": 34962
    },
    {
      "buffer": 0,
      "byteLength": 72368,
      "byteOffset": 225280,
      "byteStride": 16,
      "name": "floatBufferViews",
      "target": 34962
    }
  ],
  "buffers": [
    {
      "byteLength": 297648,
      "uri": "scene.bin"
    }
  ],
  "extensionsUsed": [
    "KHR_materials_specular"
  ],
  "images": [
    {
      "uri": "textures/lambert1_baseColor.png"
    },
    {
      "uri": "textures/lambert1_metallicRoughness.png"
    },
    {
      "uri": "textures/lambert1_normal.png"
    },
    {
      "uri": "textures/lambert1_specularf0.png"
    },
    {
      "uri": "textures/lambert3_baseColor.png"
    },
    {
      "uri": "textures/lambert3_metallicRoughness.png"
    },
    {
      "uri": "textures/lambert3_normal.png"
    }
  ],
  "materials": [
    {
      "doubleSided": true,
      "extensions": {
        "KHR_materials_specular": {
          "specularColorFactor": [
            1.0,
            1.0,
            1.0
          ],
          "specularFactor": 1.0,
          "specularTexture": {
            "index": 3
          }
        }
      },
      "name": "lambert1",
      "normalTexture": {
        "index": 2
      },
      "occlusionTexture": {
        "index": 1
      },
      "pbrMetallicRoughness": {
        "baseColorTexture": {
          "index": 0
        },
        "metallicFactor": 0.5043824895466348,
        "metallicRoughnessTexture": {
          "index": 1
        }
      }
    },
    {
      "doubleSided": true,
      "name": "lambert3",
      "normalTexture": {
        "index": 6
      },
      "occlusionTexture": {
        "index": 5
      },
      "pbrMetallicRoughness": {
        "baseColorTexture": {
          "index": 4
        },
        "metallicFactor": 0.0,
        "metallicRoughnessTexture": {
          "index": 5
        }
      }
    }
  ],
  "meshes": [
    {
      "name": "pCylinder18_lambert1_0",
      "primitives": [
        {
          "attributes": {
            "NORMAL": 1,
            "POSITION": 0,
            "TANGENT": 2,
            "TEXCOORD_0": 3
          },
          "indices": 4,
          "material": 0,
          "mode": 4
        }
      ]
    },
    {
      "name": "pCylinder18_lambert3_0",
      "primitives": [
        {
          "attributes": {
            "NORMAL": 6,
            "POSITION": 5,
            "TANGENT": 7,
            "TEXCOORD_0": 8
          },
          "indices": 9,
          "material": 1,
          "mode": 4
        }
      ]
    }
  ],
  "nodes": [
    {
      "children": [
        1
      ],
      "matrix": [
        1.0,
        0.0,
        0.0,
        0.0,
        0.0,
        2.220446049250313e-16,
        -1.0,
        0.0,
        0.0,
        1.0,
        2.220446049250313e-16,
        0.0,
        0.0,
        0.0,
        0.0,
        1.0
      ],
      "name": "Sketchfab_model"
    },
    {
      "children": [
        2
      ],
      "matrix": [
        0.009999999776482582,
        0.0,
        0.0,
        0.0,
        0.0,
        0.0,
        0.009999999776482582,
        0.0,
        0.0,
        -0.009999999776482582,
        0.0,
        0.0,
        0.0,
        0.0,
        0.0,
        1.0
      ],
      "name": "SM_Toilet.fbx"
    },
    {
      "children": [
        3
      ],
      "name": "RootNode"
    },
    {
      "children": [
        4,
        5
      ],
      "matrix": [
        1.0,
        0.0,
        0.0,
        0.0,
        0.0,
        0.9999999999999867,
        1.6292067073209113e-07,
        0.0,
        0.0,
        -1.6292067073209113e-07,
        0.9999999999999867,
        0.0,
        0.0,
        0.0,
        0.0,
        1.0
      ],
      "name": "pCylinder18"
    },
    {
      "mesh": 0,
      "name": "pCylinder18_lambert1_0"
    },
    {
      "mesh": 1,
      "name": "pCylinder18_lambert3_0"
    }
  ],
  "samplers": [
    {
      "magFilter": 9729,
      "minFilter": 9987,
      "wrapS": 10497,
      "wrapT": 10497
    }
  ],
  "scene": 0,
  "scenes": [
    {
      "name": "Sketchfab_Scene",
      "nodes": [
        0
      ]
    }
  ],
  "textures": [
    {
      "sampler": 0,
      "source": 0
    },
    {
      "sampler": 0,
      "source": 1
    },
    {
      "sampler": 0,
      "source": 2
    },
    {
      "sampler": 0,
      "source": 3
    },
    {
      "sampler": 0,
      "source": 4
    },
    {
      "sampler": 0,
      "source": 5
    },
    {
      "sampler": 0,
      "source": 6
    }
  ]
}
